<mxfile host="app.diagrams.net" modified="2024-01-17T10:55:42.125Z" agent="Mozilla/5.0 (Windows NT 10.0; Win64; x64) AppleWebKit/537.36 (KHTML, like Gecko) Chrome/120.0.0.0 Safari/537.36" version="21.8.1" etag="6krHVS2o8wuKJczHlnrv" type="github">
  <diagram name="Page-1" id="MQr27Sb45i_wKZ7tQROh">
    <mxGraphModel>
      <root>
        <mxCell id="0" />
        <mxCell id="1" parent="0" />
      </root>
    </mxGraphModel>
  </diagram>
</mxfile>
